_________________________  Visit us at _________________________
  
http://p2pdl.com  ____________________________  http://p2pdl.com


Blue Crush 2002 BRRip 720p x264 AAC - PRiSTiNE

Genre: Drama | Romance | Sport
Plot: As a hard-core surfer girl prepares for 
a big competition, she finds herself falling for a football player.
Director: John Stockwell
Stars: Kate Bosworth, Matthew Davis, Michelle Rodriguez
Rated: Rated PG-13 for sexual content, teen partying, language and a fight

Info: 
http://www.imdb.com/title/tt0300532/

General
Complete name                  : Blue Crush 2002 BRRip 720p x264 AAC - PRiSTiNE.mp4
Format                         : MPEG-4
Format profile                 : Base Media
File size                      : 658 MiB
Duration                       : 1h 44mn
Overall bit rate mode          : Variable
Overall bit rate               : 882 Kbps

Video
Format                         : AVC
Format/Info                    : Advanced Video Codec
Format profile                 : High 10@L4.1
Bit rate                       : 798 Kbps
Width                          : 1 280 pixels
Height                         : 688 pixels
Display aspect ratio           : 1.85:1
Frame rate mode                : Constant
Frame rate                     : 23.976 fps
Bit depth                      : 10 bits
Stream size                    : 595 MiB (90%)
Writing library                : x264 core 130 r2273 b3065e6

Audio
Format                         : AAC
Bit rate mode                  : Variable
Bit rate                       : 80.0 Kbps
Channel(s)                     : 2 channels
Channel positions              : Front: L R
Sampling rate                  : 48.0 KHz
Stream size                    : 59.7 MiB (9%)
Language                       : English

Subtitle                       : Yes (English)
Source                         : 720p.BluRay.X264-AVCHD (Thanks)

Screenshots:
 
http://www.ultraimg.com/images/AKsEV.jpg 
http://www.ultraimg.com/images/mD2XZ.jpg 
http://www.ultraimg.com/images/IrWGT.jpg 
http://www.ultraimg.com/images/5CohM.jpg 
http://www.ultraimg.com/images/vgE3.jpg 
http://www.ultraimg.com/images/3WQAV.jpg 
http://www.ultraimg.com/images/3K8Bg.jpg

----------------------------------------------------------------------------------------------------


Encoded using revolutionary 10bit encoding, which enables us to provide you more crispier 
and sharper images at small sizes, just make sure you follow our instructions without a fault.
Recommend to you to use latest version of VLC player. Install K-Lite Codec Pack or shark007 codecs
in case of any kind of problem in playback (For non-VLC Media Player users). Alternatively, install
Core AVC codecs, the fastest decoder that there is coupled with Community Center Codec Pack and play
on Windows Media Player Classic. Check sample to be sure.
Enjoy!

Encoder Notes:Looking For Early Access To Anything You Can Provide DVDScr, R5, DVDR, BluRay, Direct
Audio, Music Releases and Seedboxes. We require dedicated servers, so as to do more 
and fast releases of movies.
If You Got anything to offer please contact us at "prg@hush.com".

Face book Fan Page:   
http://www.fb.me/p2pdl